# xmcd
# Copyright (C) 1995-1998 Ti Kan
#
# Track frame offsets:
#       150
#       17870
#       19973
#
# Disc length: 272 seconds
#
# Revision: 0
# Processed by: cddbd v1.5.2PL0 Copyright (c) Steve Scherf et al.
# Submitted via: CD-Transfer v1.0
#
DISCID=1d010e03
DTITLE=Palumo - 
DYEAR=1900
DGENRE=
TTITLE0=Somehow
TTITLE1=Offbeat
TTITLE2=Und Mir Da Im Radiostudio ...
EXTD=
EXTT0=
EXTT1=
EXTT2=
PLAYORDER=
